<?xml version="1.0" encoding="UTF-8"?>
<!DOCTYPE svg PUBLIC "-//W3C//DTD SVG 1.0//EN" "http://www.w3.org/TR/2001/REC-SVG-20010904/DTD/svg10.dtd">
<!-- Creator: CorelDRAW 2018 (64 Bit Versão de avaliação) -->
<svg xmlns="http://www.w3.org/2000/svg" xml:space="preserve" width="159.327mm" height="21.6032mm" version="1.0" style="shape-rendering:geometricPrecision; text-rendering:geometricPrecision; image-rendering:optimizeQuality; fill-rule:evenodd; clip-rule:evenodd"
viewBox="0 0 15903.35 2156.34"
 xmlns:xlink="http://www.w3.org/1999/xlink">
 <defs>
  <style type="text/css">
   <![CDATA[
    .fil1 {fill:#C70007;fill-rule:nonzero}
    .fil0 {fill:black;fill-rule:nonzero;fill-opacity:0.501961}
   ]]>
  </style>
 </defs>
 <g id="Camada_x0020_1">
  <metadata id="CorelCorpID_0Corel-Layer"/>
  <path class="fil0" d="M579.49 5.99l1362.49 0 0 214.57 214.34 0 0 1576.84 -362.15 0 0 355.48 -1577.07 0 0 -213.66 -217.11 0 0 -1363.19 217.11 0 0 -213.89 145.04 0 0 -141.59 217.34 0 0 -214.57zm144.35 145.04l0 213.89 -217.34 0 0 1073.79 217.34 0 0 213.66 1287.44 0 0 -859.21 -645.33 0 0 217.11 428.22 0 0 211.12 -638.65 0 0 -639.35 855.76 0 0 -217.11 -213.66 0 0 -213.89 -1073.79 0zm1941.07 -141.59l1365.95 0 0 213.66 214.34 0 0 1577.07 -362.15 0 0 356.17 -506.5 0 0 -356.17 -352.71 0 0 356.17 -934.96 0 0 -1577.08 213.89 0 0 -214.34 148.27 0 0 -141.82 213.89 0 0 -213.66zm145.04 145.04l0 213.66 -214.57 0 0 1287.67 645.57 0 0 -428.23 642.1 0 0 428.23 217.11 0 0 -1287.67 -213.66 0 0 -213.66 -1076.55 0zm430.99 430.99l642.1 0 0 424.78 -642.1 0 0 -424.78zm1298.95 -585.48l720.39 0 0 213.66 214.57 0 0 141.82 352.02 0 0 -141.82 214.57 0 0 -213.66 506.5 0 0 1790.73 -362.15 0 0 356.16 -506.5 0 0 -428.23 -135.6 0 0 213.66 -430.99 0 0 214.57 -934.96 0 0 -1791.42 362.15 0 0 -355.47zm144.35 145.04l0 1501.33 645.57 0 0 -428.22 211.12 0 0 213.65 219.86 0 0 -213.65 214.57 0 0 -213.89 210.43 0 0 642.1 217.11 0 0 -1501.33 -217.11 0 0 213.66 -213.89 0 0 213.89 -213.88 0 0 214.57 -214.34 0 0 -214.57 -213.89 0 0 -213.89 -213.89 0 0 -213.66 -431.68 0zm2158.4 -139.05l1794.18 0 0 721.08 -362.15 0 0 349.48 362.15 0 0 720.85 -362.15 0 0 355.48 -1794.18 0 0 -1790.73 362.15 0 0 -356.16zm144.35 145.04l0 1501.33 1504.78 0 0 -430.98 -859.21 0 0 -211.12 430.98 0 0 -217.11 -430.98 0 0 -211.12 859.21 0 0 -430.99 -1504.78 0zm1944.52 -145.04l1794.18 0 0 721.08 -428.22 0 0 428.23 -428.23 0 0 642.1 -361.69 0 0 355.48 -938.19 0 0 -1790.73 362.15 0 0 -356.16zm144.35 145.04l0 1501.33 649.02 0 0 -642.1 427.53 0 0 -217.11 -427.53 0 0 -211.12 855.76 0 0 -430.99 -1504.78 0zm1944.52 -147.81l934.96 0 0 1069.87 642.11 0 0 721.09 -362.15 0 0 355.47 -1577.08 0 0 -1790.96 362.15 0 0 -355.47zm144.35 144.35l0 1501.56 1287.67 0 0 -430.98 -642.1 0 0 -1070.57 -645.57 0zm1727.42 -144.35l934.96 0 0 1790.96 -362.15 0 0 355.47 -934.96 0 0 -1790.96 362.15 0 0 -355.47zm144.35 144.35l0 1501.56 645.57 0 0 -1501.56 -645.57 0zm1075.86 -141.59l720.39 0 0 214.57 349.49 0 0 -214.57 721.08 0 0 721.08 -213.89 0 0 349.48 213.89 0 0 720.85 -352.95 0 0 355.48 -720.38 0 0 -213.66 -349.27 0 0 213.66 -721.08 0 0 -721.09 213.89 0 0 -349.26 -213.89 0 0 -720.39 352.71 0 0 -356.16zm144.35 145.04l0 430.99 214.57 0 0 214.57 213.89 0 0 210.43 -213.89 0 0 217.1 -214.57 0 0 428.23 431.68 0 0 -213.66 213.89 0 0 -214.57 211.12 0 0 214.57 213.89 0 0 213.66 430.99 0 0 -428.23 -213.89 0 0 -217.1 -213.89 0 0 -210.43 213.89 0 0 -214.57 213.89 0 0 -430.99 -430.99 0 0 213.89 -207.9 0c-3.91,0.92 -5.99,2.99 -5.99,6.68l0 207.67 -211.12 0 0 -214.34 -213.89 0 0 -213.89 -431.68 0z"/>
  <g id="_1518746588928">
   <path class="fil1" d="M14256.72 151.7l0 430.99 214.57 0 0 214.57 213.89 0 0 210.43 -213.89 0 0 217.1 -214.57 0 0 428.23 431.68 0 0 -213.66 213.89 0 0 -214.57 211.12 0 0 214.57 213.89 0 0 213.66 430.99 0 0 -428.23 -213.89 0 0 -217.1 -213.89 0 0 -210.43 213.89 0 0 -214.57 213.89 0 0 -430.99 -430.99 0 0 213.89 -207.9 0c-3.91,0.92 -5.99,2.99 -5.99,6.68l0 207.67 -211.12 0 0 -214.34 -213.89 0 0 -213.89 -431.68 0z"/>
   <path class="fil1" d="M13036.51 148.25l0 1501.56 645.57 0 0 -1501.56 -645.57 0z"/>
   <path class="fil1" d="M11164.73 148.25l0 1501.56 1287.67 0 0 -430.98 -642.1 0 0 -1070.57 -645.57 0z"/>
   <path class="fil1" d="M9075.86 151.7l0 1501.33 649.02 0 0 -642.1 427.53 0 0 -217.11 -427.53 0 0 -211.12 855.76 0 0 -430.99 -1504.78 0z"/>
   <path class="fil1" d="M6986.99 151.7l0 1501.33 1504.78 0 0 -430.98 -859.21 0 0 -211.12 430.98 0 0 -217.11 -430.98 0 0 -211.12 859.21 0 0 -430.99 -1504.78 0z"/>
   <path class="fil1" d="M4684.23 145.71l0 1501.33 645.57 0 0 -428.22 211.12 0 0 213.65 219.86 0 0 -213.65 214.57 0 0 -213.89 210.43 0 0 642.1 217.11 0 0 -1501.33 -217.11 0 0 213.66 -213.89 0 0 213.89 -213.88 0 0 214.57 -214.34 0 0 -214.57 -213.89 0 0 -213.89 -213.89 0 0 -213.66 -431.68 0z"/>
   <path class="fil1" d="M2809.93 155.15l0 213.66 -214.57 0 0 1287.67 645.57 0 0 -428.23 642.1 0 0 428.23 217.11 0 0 -1287.67 -213.66 0 0 -213.66 -1076.55 0zm430.99 430.99l642.1 0 0 424.78 -642.1 0 0 -424.78z"/>
   <path class="fil1" d="M723.82 151.7l0 213.89 -217.34 0 0 1073.79 217.34 0 0 213.66 1287.44 0 0 -859.21 -645.33 0 0 217.11 428.22 0 0 211.12 -638.65 0 0 -639.35 855.76 0 0 -217.11 -213.66 0 0 -213.89 -1073.79 0z"/>
  </g>
 </g>
</svg>
